<svg width="1024" height="1024" viewBox="0 0 1024 1024" fill="none" xmlns="http://www.w3.org/2000/svg">
<g clip-path="url(#clip0_1_33)">
<rect width="1024" height="1024" rx="64" fill="white"/>
<rect width="1024" height="1024" fill="url(#paint0_linear_1_33)"/>
<g filter="url(#filter0_b_1_33)">
<path d="M85.3334 384C85.3334 497.159 130.286 605.683 210.301 685.699C290.317 765.714 398.841 810.667 512 810.667C625.159 810.667 733.683 765.714 813.699 685.699C893.714 605.683 938.667 497.159 938.667 384" fill="url(#paint1_radial_1_33)"/>
<path d="M512 810.667C512 697.508 556.952 588.983 636.968 508.968C716.983 428.952 825.508 384 938.667 384" fill="url(#paint2_radial_1_33)"/>
<path d="M85.3334 384C141.364 384 196.846 395.036 248.612 416.478C300.377 437.92 347.413 469.348 387.032 508.968C426.652 548.587 458.08 595.623 479.522 647.388C500.964 699.154 512 754.636 512 810.667" fill="url(#paint3_radial_1_33)"/>
<path d="M512 170.667C554.998 211.714 588.65 261.543 610.664 316.762C632.678 371.982 642.538 431.295 639.573 490.667" fill="url(#paint4_radial_1_33)"/>
<path d="M384.427 490.667C381.462 431.295 391.322 371.982 413.336 316.762C435.35 261.543 469.002 211.714 512 170.667" fill="url(#paint5_radial_1_33)"/>
<path d="M512 810.667C398.841 810.667 290.317 765.714 210.301 685.699C130.286 605.683 85.3334 497.159 85.3334 384C141.364 384 196.846 395.036 248.612 416.478C300.377 437.92 347.413 469.348 387.032 508.968C426.652 548.587 458.08 595.623 479.522 647.388C500.964 699.154 512 754.636 512 810.667ZM512 810.667C625.159 810.667 733.683 765.714 813.699 685.699C893.714 605.683 938.667 497.159 938.667 384C825.508 384 716.983 428.952 636.968 508.968C556.952 588.983 512 697.508 512 810.667ZM639.573 490.667C642.538 431.295 632.678 371.982 610.664 316.762C588.65 261.543 554.998 211.714 512 170.667C469.002 211.714 435.35 261.543 413.336 316.762C391.322 371.982 381.462 431.295 384.427 490.667" stroke="url(#paint6_radial_1_33)" stroke-width="3" stroke-linecap="round" stroke-linejoin="round"/>
<path d="M512 810.667C398.841 810.667 290.317 765.714 210.301 685.699C130.286 605.683 85.3334 497.159 85.3334 384C141.364 384 196.846 395.036 248.612 416.478C300.377 437.92 347.413 469.348 387.032 508.968C426.652 548.587 458.08 595.623 479.522 647.388C500.964 699.154 512 754.636 512 810.667ZM512 810.667C625.159 810.667 733.683 765.714 813.699 685.699C893.714 605.683 938.667 497.159 938.667 384C825.508 384 716.983 428.952 636.968 508.968C556.952 588.983 512 697.508 512 810.667ZM639.573 490.667C642.538 431.295 632.678 371.982 610.664 316.762C588.65 261.543 554.998 211.714 512 170.667C469.002 211.714 435.35 261.543 413.336 316.762C391.322 371.982 381.462 431.295 384.427 490.667" stroke="url(#paint7_radial_1_33)" stroke-width="3" stroke-linecap="round" stroke-linejoin="round"/>
<path d="M512 810.667C398.841 810.667 290.317 765.714 210.301 685.699C130.286 605.683 85.3334 497.159 85.3334 384C141.364 384 196.846 395.036 248.612 416.478C300.377 437.92 347.413 469.348 387.032 508.968C426.652 548.587 458.08 595.623 479.522 647.388C500.964 699.154 512 754.636 512 810.667ZM512 810.667C625.159 810.667 733.683 765.714 813.699 685.699C893.714 605.683 938.667 497.159 938.667 384C825.508 384 716.983 428.952 636.968 508.968C556.952 588.983 512 697.508 512 810.667ZM639.573 490.667C642.538 431.295 632.678 371.982 610.664 316.762C588.65 261.543 554.998 211.714 512 170.667C469.002 211.714 435.35 261.543 413.336 316.762C391.322 371.982 381.462 431.295 384.427 490.667" stroke="url(#paint8_linear_1_33)" stroke-width="3" stroke-linecap="round" stroke-linejoin="round"/>
</g>
</g>
<defs>
<filter id="filter0_b_1_33" x="38.8334" y="124.167" width="946.333" height="733" filterUnits="userSpaceOnUse" color-interpolation-filters="sRGB">
<feFlood flood-opacity="0" result="BackgroundImageFix"/>
<feGaussianBlur in="BackgroundImageFix" stdDeviation="22.5"/>
<feComposite in2="SourceAlpha" operator="in" result="effect1_backgroundBlur_1_33"/>
<feBlend mode="normal" in="SourceGraphic" in2="effect1_backgroundBlur_1_33" result="shape"/>
</filter>
<linearGradient id="paint0_linear_1_33" x1="0" y1="512" x2="1024" y2="512" gradientUnits="userSpaceOnUse">
<stop stop-color="#FD746C"/>
<stop offset="1" stop-color="#FF9068"/>
</linearGradient>
<radialGradient id="paint1_radial_1_33" cx="0" cy="0" r="1" gradientUnits="userSpaceOnUse" gradientTransform="translate(93.0089 189.708) rotate(35.9851) scale(1028.91 1565.61)">
<stop stop-color="white" stop-opacity="0.4"/>
<stop offset="1" stop-color="white" stop-opacity="0"/>
</radialGradient>
<radialGradient id="paint2_radial_1_33" cx="0" cy="0" r="1" gradientUnits="userSpaceOnUse" gradientTransform="translate(93.0089 189.708) rotate(35.9851) scale(1028.91 1565.61)">
<stop stop-color="white" stop-opacity="0.4"/>
<stop offset="1" stop-color="white" stop-opacity="0"/>
</radialGradient>
<radialGradient id="paint3_radial_1_33" cx="0" cy="0" r="1" gradientUnits="userSpaceOnUse" gradientTransform="translate(93.0089 189.708) rotate(35.9851) scale(1028.91 1565.61)">
<stop stop-color="white" stop-opacity="0.4"/>
<stop offset="1" stop-color="white" stop-opacity="0"/>
</radialGradient>
<radialGradient id="paint4_radial_1_33" cx="0" cy="0" r="1" gradientUnits="userSpaceOnUse" gradientTransform="translate(93.0089 189.708) rotate(35.9851) scale(1028.91 1565.61)">
<stop stop-color="white" stop-opacity="0.4"/>
<stop offset="1" stop-color="white" stop-opacity="0"/>
</radialGradient>
<radialGradient id="paint5_radial_1_33" cx="0" cy="0" r="1" gradientUnits="userSpaceOnUse" gradientTransform="translate(93.0089 189.708) rotate(35.9851) scale(1028.91 1565.61)">
<stop stop-color="white" stop-opacity="0.4"/>
<stop offset="1" stop-color="white" stop-opacity="0"/>
</radialGradient>
<radialGradient id="paint6_radial_1_33" cx="0" cy="0" r="1" gradientUnits="userSpaceOnUse" gradientTransform="translate(93.0089 189.708) rotate(35.9851) scale(1028.91 1565.61)">
<stop stop-color="#D8D8D8" stop-opacity="0"/>
<stop offset="1" stop-color="#D8D8D8"/>
</radialGradient>
<radialGradient id="paint7_radial_1_33" cx="0" cy="0" r="1" gradientUnits="userSpaceOnUse" gradientTransform="translate(97.0723 791.096) rotate(-35.975) scale(1023.76 1555.97)">
<stop stop-color="#D8D8D8" stop-opacity="0"/>
<stop offset="1" stop-color="#D8D8D8"/>
</radialGradient>
<linearGradient id="paint8_linear_1_33" x1="101.136" y1="188.121" x2="971.698" y2="718.445" gradientUnits="userSpaceOnUse">
<stop stop-color="white" stop-opacity="0.9"/>
<stop offset="1" stop-color="white" stop-opacity="0"/>
</linearGradient>
<clipPath id="clip0_1_33">
<rect width="1024" height="1024" rx="64" fill="white"/>
</clipPath>
</defs>
</svg>
